<svg width="386" height="255" viewBox="0 0 386 255" fill="none" xmlns="http://www.w3.org/2000/svg">
<g clip-path="url(#clip0_18_342)">
<path d="M295.531 252.116C290.589 247.502 287.587 240.213 288.374 233.117C289.162 226.021 294.037 219.498 300.362 217.991C306.686 216.484 313.896 220.655 315.817 227.482C316.874 214.321 318.092 200.608 324.425 189.399C330.159 179.251 340.091 171.989 350.854 170.689C361.618 169.39 372.951 174.297 379.664 183.685C386.376 193.072 388.02 206.719 383.319 217.497C379.855 225.436 373.474 231.345 366.789 236.152C345.185 251.554 319.274 257.818 293.824 253.79L295.531 252.116Z" fill="#F2F2F2"/>
<path d="M369.02 174.569C360.138 182.562 351.991 191.502 344.694 201.26C333.276 216.477 324.036 233.539 317.296 251.851C316.803 253.187 318.766 253.768 319.254 252.447C330.281 222.687 347.885 196.457 370.455 176.155C371.469 175.243 370.025 173.665 369.02 174.569Z" fill="white"/>
<path d="M124.26 250.863C131.047 244.525 135.17 234.514 134.089 224.767C133.008 215.021 126.311 206.061 117.624 203.992C108.937 201.922 99.0352 207.651 96.3968 217.028C94.9447 198.95 93.2715 180.115 84.5735 164.721C76.6976 150.781 63.0566 140.807 48.2727 139.023C33.4889 137.238 17.9234 143.978 8.70322 156.871C-0.516928 169.765 -2.77444 188.51 3.68311 203.313C8.44016 214.218 17.2043 222.333 26.387 228.936C55.6829 249.999 92.0243 258.784 126.604 253.161" fill="#F2F2F2"/>
<path d="M23.3227 144.351C35.5212 155.33 46.712 167.609 56.7334 181.011C66.7563 194.399 75.5803 208.829 83.0817 224.1C87.2746 232.666 91.0411 241.478 94.3646 250.498C95.0422 252.333 92.3458 253.131 91.6758 251.317C85.7891 235.415 78.5062 220.189 69.9315 205.857C61.3985 191.577 51.632 178.246 40.7691 166.049C34.6251 159.155 28.1426 152.638 21.351 146.53C19.9589 145.278 21.9421 143.109 23.3227 144.351L23.3227 144.351Z" fill="white"/>
<path d="M277.077 254.442H115.135V70.8417C115.135 31.7794 143.895 0 179.246 0H212.966C248.317 0 277.077 31.7794 277.077 70.8417V254.442Z" fill="#F2F2F2"/>
<path d="M243.358 254.442H115.134V70.8417C115.099 55.8739 119.388 41.2844 127.378 29.1974C127.673 28.7538 127.966 28.316 128.269 27.883C132.134 22.2823 136.733 17.3499 141.914 13.2486C142.207 13.0133 142.501 12.782 142.799 12.5508C147.135 9.23542 151.825 6.52516 156.763 4.48171C157.056 4.35891 157.354 4.23587 157.653 4.11785C162.119 2.35689 166.748 1.15065 171.455 0.521382C171.747 0.477332 172.046 0.442863 172.346 0.408393C176.933 -0.133568 181.56 -0.133568 186.147 0.408393C186.446 0.442863 186.745 0.477328 187.04 0.521853C191.746 1.15116 196.375 2.35726 200.839 4.11787C201.138 4.23589 201.436 4.35893 201.73 4.48197C206.607 6.49964 211.242 9.16946 215.532 12.4318C215.83 12.6581 216.128 12.8893 216.422 13.1205C219.326 15.4114 222.054 17.9635 224.578 20.7509C226.602 22.9866 228.488 25.3698 230.224 27.8844C230.526 28.316 230.819 28.7539 231.113 29.1967C239.103 41.2839 243.393 55.8736 243.358 70.8417V254.442Z" fill="#CCCCCC"/>
<path d="M232.931 172.324C236.852 172.324 240.03 168.812 240.03 164.48C240.03 160.148 236.852 156.636 232.931 156.636C229.01 156.636 225.832 160.148 225.832 164.48C225.832 168.812 229.01 172.324 232.931 172.324Z" fill="#236969"/>
<path d="M263.811 248.943H258.371L255.783 225.76L263.812 225.76L263.811 248.943Z" fill="#FFB8B8"/>
<path d="M254.486 247.225H264.976V254.524H247.881C247.881 253.565 248.052 252.616 248.384 251.731C248.715 250.845 249.202 250.041 249.815 249.363C250.429 248.685 251.157 248.147 251.958 247.781C252.759 247.414 253.618 247.225 254.486 247.225Z" fill="#2F2E41"/>
<path d="M290.875 248.943H285.435L282.848 225.76L290.876 225.76L290.875 248.943Z" fill="#FFB8B8"/>
<path d="M281.55 247.225H292.04V254.524H274.945C274.945 253.565 275.116 252.616 275.448 251.731C275.78 250.845 276.266 250.041 276.88 249.363C277.493 248.685 278.221 248.147 279.022 247.781C279.824 247.414 280.683 247.225 281.55 247.225Z" fill="#2F2E41"/>
<path d="M236.524 166.034C236.132 165.397 235.872 164.673 235.762 163.913C235.651 163.153 235.693 162.375 235.883 161.634C236.074 160.894 236.41 160.209 236.866 159.627C237.322 159.045 237.889 158.581 238.525 158.267L257.016 101.953L266.114 107.44L245.002 161.255C245.408 162.471 245.396 163.81 244.969 165.017C244.542 166.225 243.729 167.217 242.684 167.806C241.639 168.395 240.434 168.54 239.299 168.213C238.164 167.887 237.176 167.111 236.524 166.034Z" fill="#FFB8B8"/>
<path d="M288.096 176.616C287.492 176.233 286.971 175.708 286.57 175.078C286.169 174.449 285.897 173.73 285.775 172.972C285.652 172.214 285.682 171.435 285.861 170.691C286.041 169.947 286.365 169.256 286.813 168.666L281.085 109.095L291.439 109.618L293.82 168.213C294.667 169.109 295.188 170.318 295.283 171.61C295.378 172.902 295.041 174.188 294.336 175.223C293.63 176.259 292.605 176.973 291.455 177.23C290.305 177.486 289.11 177.268 288.096 176.616Z" fill="#FFB8B8"/>
<path d="M271.578 91.5224C277.596 91.5224 282.475 86.1314 282.475 79.4812C282.475 72.8311 277.596 67.4401 271.578 67.4401C265.56 67.4401 260.681 72.8311 260.681 79.4812C260.681 86.1314 265.56 91.5224 271.578 91.5224Z" fill="#FFB8B8"/>
<path d="M288.027 163.068H255.174L255.213 162.785C255.272 162.363 261.068 120.408 256.794 106.682C256.365 105.334 256.402 103.857 256.9 102.537C257.397 101.217 258.318 100.147 259.486 99.5328H259.487C265.597 96.3534 277.326 92.4383 287.225 101.94C288.682 103.361 289.82 105.137 290.548 107.128C291.277 109.118 291.576 111.269 291.422 113.41L288.027 163.068Z" fill="#236969"/>
<path d="M261.484 126.608L246.693 123.293L253.626 105.139C254.041 103.38 255.07 101.876 256.487 100.955C257.905 100.034 259.595 99.7714 261.188 100.226C262.78 100.68 264.144 101.813 264.981 103.377C265.818 104.942 266.059 106.809 265.652 108.569L261.484 126.608Z" fill="#236969"/>
<path d="M280.427 132.765L279.538 110.242C278.864 106.008 281.057 102.005 284.43 101.351C287.805 100.699 291.1 103.636 291.777 107.901L295.119 128.946L280.427 132.765Z" fill="#236969"/>
<path d="M286.934 160.371C292.22 182.617 292.797 210.901 291.371 241.753L284.272 240.773L271.405 181.942L264.306 241.753L256.32 241.263C253.934 208.892 251.611 181.101 255.433 162.822L286.934 160.371Z" fill="#2F2E41"/>
<path d="M278.758 88.7869C276.725 91.1798 272.95 89.8953 272.685 86.6263C272.664 86.3725 272.666 86.1171 272.69 85.8636C272.826 84.4156 273.583 83.101 273.402 81.5721C273.361 81.1916 273.233 80.829 273.029 80.5186C271.409 78.1216 267.607 81.5908 266.078 79.4208C265.14 78.0903 266.242 75.9953 265.523 74.5082C264.573 72.5454 261.761 73.5137 259.997 72.4388C258.035 71.2428 258.152 67.9161 259.444 65.8926C261.019 63.4248 263.781 62.1081 266.509 61.9183C269.236 61.7285 271.945 62.5432 274.492 63.6398C277.385 64.8857 280.254 66.6075 282.035 69.4187C284.2 72.8373 284.408 77.4333 283.325 81.4307C282.667 83.8624 280.418 86.833 278.758 88.7869Z" fill="#2F2E41"/>
<path d="M372.682 254.757H45.1166C44.9767 254.757 44.8428 254.695 44.744 254.586C44.6453 254.476 44.5898 254.328 44.5898 254.174C44.5898 254.019 44.6453 253.871 44.744 253.761C44.8428 253.652 44.9767 253.59 45.1166 253.59H372.682C372.822 253.59 372.955 253.652 373.054 253.761C373.153 253.871 373.208 254.019 373.208 254.174C373.208 254.328 373.153 254.476 373.054 254.586C372.955 254.695 372.822 254.757 372.682 254.757Z" fill="#3F3D56"/>
<path d="M208.085 201.249H150.407C149.647 201.254 148.917 200.925 148.376 200.336C147.836 199.746 147.529 198.943 147.523 198.104V55.8474C147.529 55.0081 147.836 54.2056 148.376 53.616C148.917 53.0263 149.647 52.6978 150.407 52.7023H208.085C208.845 52.6978 209.575 53.0263 210.116 53.616C210.656 54.2056 210.963 55.0081 210.969 55.8474V198.104C210.963 198.943 210.656 199.746 210.116 200.336C209.575 200.925 208.845 201.254 208.085 201.249Z" fill="white"/>
<path d="M210.969 98.7321H147.523V99.7126H210.969V98.7321Z" fill="#CCCCCC"/>
<path d="M211.191 154.675H147.745V155.656H211.191V154.675Z" fill="#CCCCCC"/>
<path d="M168.376 52.7023H167.489V201.74H168.376V52.7023Z" fill="#CCCCCC"/>
<path d="M190.56 52.7023H189.672V201.74H190.56V52.7023Z" fill="#CCCCCC"/>
</g>
<defs>
<clipPath id="clip0_18_342">
<rect width="386" height="255" fill="white"/>
</clipPath>
</defs>
</svg>
