<svg width="185" height="287" viewBox="0 0 185 287" fill="none" xmlns="http://www.w3.org/2000/svg">
<path fill-rule="evenodd" clip-rule="evenodd" d="M89.7735 27.1617C86.4907 23.3084 84.2689 18.5862 84.6401 13.2947C85.7099 -1.95142 106.933 1.40253 111.061 9.09747C115.19 16.7924 114.699 36.3113 109.364 37.6866C107.236 38.235 102.703 36.8915 98.0896 34.1108L100.985 54.597H83.8873L89.7735 27.1617Z" fill="#B28B67"/>
<path fill-rule="evenodd" clip-rule="evenodd" d="M103.521 10.2135C101.2 11.5114 99.5492 13.9434 97.5614 17.1335C97.0773 16.9432 96.5501 16.8387 95.9985 16.8387C93.6377 16.8387 91.7239 18.7524 91.7239 21.1132C91.7239 22.3116 92.2171 23.3949 93.0116 24.1711C92.0226 25.5671 90.9141 27.0255 89.6439 28.5303C84.904 25.6866 81.3785 17.3982 85.9042 9.39691C89.7982 -6.63028 111.863 3.31762 116.108 0.614571C117.036 6.43056 114.043 11.1201 103.521 10.2135Z" fill="#191847"/>
<path fill-rule="evenodd" clip-rule="evenodd" d="M83.1987 116.446L118.165 204.947L141.618 279.768H150.879L115.025 116.446L83.1987 116.446Z" fill="#997659"/>
<path fill-rule="evenodd" clip-rule="evenodd" d="M76.1576 116.446C75.7853 147.546 70.3551 189.417 69.4876 191.356C68.9092 192.648 48.9428 209.083 9.58853 240.662L15.967 247.487C62.4014 220.413 86.693 205.07 88.8418 201.459C92.0649 196.043 102.558 146.199 110.983 116.446H76.1576Z" fill="#B28B67"/>
<path fill-rule="evenodd" clip-rule="evenodd" d="M8.73531 238.383C6.59313 239.14 5.11746 239.858 4.3083 240.537C3.32416 241.363 2.02563 242.732 0.41271 244.644C1.37068 245.786 9.98014 256.046 26.2411 275.425C29.5567 274.006 30.5969 272.346 29.3616 270.446C28.1264 268.546 27.1155 266.955 26.3289 265.672L20.7021 246.014C20.5939 245.635 20.1995 245.416 19.8212 245.525C19.8147 245.526 19.8083 245.528 19.8019 245.53L16.7994 246.483C14.7163 245.512 13.2563 244.528 12.4194 243.53C11.7394 242.72 11.1275 241.326 10.584 239.349L10.584 239.349C10.3754 238.59 9.59114 238.144 8.83237 238.353C8.79966 238.362 8.76729 238.372 8.73531 238.383Z" fill="#E4E4E4"/>
<path fill-rule="evenodd" clip-rule="evenodd" d="M137.826 276.314C137.029 278.442 136.63 280.034 136.63 281.09C136.63 282.375 136.844 284.249 137.272 286.714C138.763 286.714 152.157 286.714 177.454 286.714C178.498 283.262 177.896 281.398 175.646 281.123C173.396 280.848 171.527 280.599 170.039 280.378L151.363 272.052C151.004 271.891 150.583 272.053 150.422 272.412C150.42 272.418 150.417 272.425 150.414 272.431L149.214 275.343C147.131 276.315 145.439 276.801 144.137 276.801C143.079 276.801 141.618 276.373 139.754 275.519L139.754 275.519C139.039 275.191 138.193 275.505 137.865 276.22C137.851 276.251 137.838 276.282 137.826 276.314Z" fill="#E4E4E4"/>
<path fill-rule="evenodd" clip-rule="evenodd" d="M106.709 272.062L150.739 267.283L118.107 116.446H78.6707L106.709 272.062Z" fill="#69A1AC"/>
<path fill-rule="evenodd" clip-rule="evenodd" d="M18.6962 229.65L47.5778 263.835C77.9981 230.611 95.7332 208.932 100.783 198.799C105.833 188.665 110.373 161.214 114.402 116.446H70.0035C67.8024 155.831 66.3188 176.44 65.5525 178.273C64.7863 180.106 49.1675 197.231 18.6962 229.65Z" fill="#89C5CC"/>
<path fill-rule="evenodd" clip-rule="evenodd" d="M147.476 107.834L168.414 128.127C174.506 130.709 179.497 133.56 183.388 136.68C184.263 137.729 185.216 139.738 181.099 138.839C176.982 137.94 172.611 137.178 171.837 138.508C171.063 139.838 173.343 141.877 171.913 143.618C170.96 144.778 167.754 141.087 162.294 132.542L140.522 119.789L147.476 107.834ZM45.0935 89.4675L61.2779 89.5279C48.9514 129.207 42.408 149.983 41.6479 151.854C39.9377 156.065 43.5568 162.479 45.1045 165.925C40.0637 168.166 40.6008 159.867 34.2421 162.806C28.4382 165.489 24.0231 170.35 17.3175 166.239C16.4931 165.734 15.5896 163.831 17.7724 162.344C23.2106 158.639 31.0472 152.155 32.1061 150.02C33.5501 147.11 37.8792 126.926 45.0935 89.4675Z" fill="#B28B67"/>
<path fill-rule="evenodd" clip-rule="evenodd" d="M94.4103 43.852L100.801 42.7628C110.869 78.1227 162.598 102.225 165.774 115.444C166.938 120.291 163.427 122.742 165.241 124.218L156.934 130.26C155.527 128.63 152.525 131.613 146.256 129.526C139.987 127.439 94.4103 85.7211 94.4103 43.852Z" fill="#236969"/>
<path fill-rule="evenodd" clip-rule="evenodd" d="M105.161 48.553C104.424 95.3668 131.662 107.308 125.595 126.088C120.585 141.596 72.6306 158.267 64.3325 143.066C60.9735 136.912 59.4495 129.47 59.2766 121.379C57.1558 127.595 55.4784 132.947 54.2446 137.433C52.116 145.173 43.864 146.403 43.864 149.385L32.992 146.403C33.7295 142.353 28.6042 140.38 29.9784 131.33C36.1357 90.7819 52.6794 61.3897 79.6093 43.1535L79.8941 39.1074C80.007 37.5387 81.3677 36.3558 82.937 36.4623L103.057 37.8601C104.627 37.9667 105.811 39.3279 105.702 40.8979C105.702 40.8988 105.702 40.8996 105.7 40.9003L105.161 48.553Z" fill="#236969"/>
</svg>
