<svg width="279" height="344" viewBox="0 0 279 344" fill="none" xmlns="http://www.w3.org/2000/svg">
<path d="M206.338 179.369C206.617 180.894 207.353 182.287 208.436 183.347" stroke="#CCDDE2" stroke-width="4.47" stroke-miterlimit="10"/>
<path d="M145.81 208.638C145.275 208.785 144.824 208.891 144.466 208.978C144.199 209.028 143.978 209.077 143.827 209.1H143.794L143.585 209.138C143.585 209.138 143.563 209.111 143.548 209.111C139.936 206.33 141.045 201.156 141.045 201.156C151.846 202.94 154.086 193.765 154.086 193.765C153.945 189.366 153.146 187.298 151.304 186.108C149.379 184.843 146.308 184.517 141.616 183.457L140.839 183.275C133.86 181.612 130.606 174.099 129.32 169.932C129.02 169.009 128.779 168.066 128.597 167.11C120.693 170.224 115.745 174.633 112.894 177.941C111.767 154.495 134.207 157.863 134.207 157.863C137.983 157.919 141.736 158.495 145.369 159.575C146.193 159.954 146.98 160.333 147.731 160.711C148.093 160.905 148.476 161.113 148.815 161.329C149.155 161.545 149.538 161.757 149.87 161.973C150.112 162.121 150.358 162.28 150.592 162.446C155.529 165.732 159.475 170.419 161.971 175.963C162.007 176.038 162.038 176.115 162.065 176.194C162.179 176.451 162.279 176.714 162.365 176.982C167.444 200.288 151.774 206.959 145.81 208.638Z" fill="#236969" fill-opacity="0.68"/>
<path d="M145.81 208.638C144.235 205.891 144.964 202.576 144.964 202.576C155.754 204.364 158.001 195.189 158.001 195.189C157.77 188.442 156.033 187.177 151.304 186.097C149.552 185.684 147.399 185.305 144.755 184.688C143.657 184.429 142.6 184.007 141.616 183.434C134.431 179.304 132.495 168.512 132.495 168.512C131.382 168.947 130.327 169.421 129.32 169.909C129.02 168.986 128.779 168.044 128.597 167.087C120.693 170.201 115.745 174.611 112.894 177.918C111.767 154.472 134.207 157.84 134.207 157.84C137.983 157.897 141.736 158.472 145.369 159.552C146.193 159.931 146.98 160.31 147.731 160.689C148.093 160.882 148.476 161.09 148.815 161.306C149.155 161.522 149.538 161.734 149.87 161.95C150.112 162.098 150.358 162.257 150.592 162.424C155.529 165.709 159.475 170.397 161.971 175.94C162.007 176.016 162.038 176.093 162.065 176.172C162.179 176.428 162.279 176.691 162.365 176.96C167.444 200.288 151.774 206.959 145.81 208.638Z" fill="#236969"/>
<path d="M183.677 312.404C185.346 323.829 187.387 335.069 189.518 340.941H93.7163C82.1822 306.596 87.6513 269.077 87.6513 269.077L70.6373 269.637C80.871 250.809 77.2298 234.891 75.5031 229.579C88.8686 227.197 102.234 225.325 115.741 225.166C115.379 233.273 123.818 242.592 135.987 240.141C140.922 239.156 146.936 237.111 147.066 228.045L150.242 228.629C154.634 229.386 158.608 230.197 162.375 231.11C172.129 233.466 180.509 236.414 190.952 240.141C176.503 251.358 183.684 277.267 183.684 277.267L184.046 278.131L179.433 277.267C179.433 277.267 181.141 295.038 183.677 312.404Z" fill="#236969"/>
<path d="M84.2814 62.7149C93.8334 62.7149 101.577 54.5938 101.577 44.5764C101.577 34.5585 93.8334 26.4378 84.2814 26.4378C74.7294 26.4378 66.9857 34.5585 66.9857 44.5764C66.9857 54.5938 74.7294 62.7149 84.2814 62.7149Z" fill="#236969"/>
<path d="M89.9679 38.5226C89.7248 37.932 89.3971 37.3838 88.9962 36.8974C88.3127 36.0447 87.3562 35.4832 86.3057 35.3188C85.2553 35.154 84.1839 35.3976 83.2923 36.0034C82.71 36.3981 82.2231 36.93 81.8709 37.557C81.5183 38.1835 81.3099 38.8878 81.2622 39.6136C80.3527 39.2685 79.3611 39.2424 78.436 39.539C77.5112 39.8356 76.7028 40.4387 76.1328 41.2585C75.5627 42.078 75.2615 43.0694 75.2748 44.0835C75.2878 45.0976 75.614 46.0803 76.205 46.8834C77.444 48.5768 79.55 49.6906 81.4573 50.3384C82.4583 50.6725 83.4878 50.9021 84.5314 51.0241C85.0588 51.0847 88.075 51.509 88.3568 51.0241C90.1991 47.9442 91.5356 42.2882 89.9679 38.5226Z" fill="#FFE9C5"/>
<path d="M55.1809 38.6817C54.0466 38.5491 52.8979 38.4658 51.7528 38.4014C50.5246 38.4658 49.2964 38.5605 48.0682 38.7196C44.1894 39.1734 40.3899 40.1936 36.7798 41.7503C35.1629 42.4477 33.6042 43.2853 32.1199 44.2544C31.0492 44.9294 30.0234 45.6799 29.0495 46.5008C28.331 45.42 27.7537 44.2426 27.3336 43.0004C26.6191 40.9043 26.3565 38.6685 26.5653 36.453C26.7737 34.2376 27.4485 32.0987 28.5401 30.1898C29.6321 28.2809 31.1143 26.6496 32.8796 25.4139C34.6449 24.1781 36.6498 23.3682 38.7496 23.0431C40.8494 22.7177 42.9919 22.8848 45.0227 23.5322C47.0536 24.18 48.9218 25.2919 50.4935 26.7883C52.0653 28.2843 53.3007 30.1273 54.1113 32.1847C54.9219 34.2422 55.2871 36.4625 55.1809 38.6855V38.6817Z" fill="#236969"/>
<path d="M48.0677 38.7196C44.1888 39.1734 40.389 40.1936 36.7792 41.7503C36.5697 41.1668 36.3963 40.6138 36.3385 40.4243C36.0488 39.5636 35.8397 38.6756 35.7136 37.7725C35.4933 36.045 35.5258 33.9842 36.2916 32.412C36.6492 31.657 37.2315 31.0448 37.9503 30.6675C38.6692 30.2902 39.4856 30.1686 40.2763 30.3209C41.067 30.4732 41.7888 30.8914 42.3328 31.5119C42.8768 32.1324 43.2138 32.9215 43.2922 33.7607C43.829 33.5413 44.4066 33.4534 44.9806 33.5038C45.555 33.5546 46.1102 33.7421 46.6047 34.0524C47.3376 34.521 47.8874 35.2483 48.1555 36.1037C48.4235 36.9588 48.3924 37.8862 48.0677 38.7196Z" fill="#FFE9C5"/>
<path d="M32.1197 44.2505C31.049 44.9252 30.0231 45.6761 29.0492 46.497C28.3968 47.027 27.7698 47.5907 27.1708 48.1866C26.4036 48.9541 25.7281 49.8167 25.1588 50.7551C24.6263 51.6283 24.1647 52.5473 23.7789 53.5016C23.1959 54.9609 22.7306 56.469 22.3881 58.0097C21.7014 61.3332 21.2871 64.7121 21.1491 68.1094C18.6093 66.779 16.5702 64.5904 15.3604 61.8966C14.151 59.2027 13.8411 56.1603 14.4812 53.2592C15.1209 50.3585 16.6735 47.7676 18.8882 45.9045C21.1029 44.0414 23.8515 43.0144 26.6904 42.989C26.9107 42.989 27.1167 42.989 27.337 42.989C28.9954 43.0724 30.6213 43.5012 32.1197 44.2505Z" fill="#236969"/>
<path d="M25.1593 50.7551C24.6269 51.6287 24.1652 52.5473 23.7794 53.5016C23.1961 54.9609 22.7312 56.469 22.3887 58.0097C21.6374 56.9149 20.998 55.6041 20.8968 54.2934C20.8614 53.8221 20.9192 53.3486 21.0663 52.9015C21.2136 52.4549 21.447 52.0446 21.7519 51.6965C22.0571 51.3483 22.4274 51.0703 22.8395 50.8789C23.2517 50.6876 23.6971 50.5876 24.1479 50.5846C24.4918 50.5804 24.8339 50.638 25.1593 50.7551Z" fill="white"/>
<g opacity="0.72">
<path opacity="0.72" d="M104.276 42.292C109.535 42.292 113.798 37.8214 113.798 32.306C113.798 26.7909 109.535 22.3199 104.276 22.3199C99.0171 22.3199 94.7539 26.7909 94.7539 32.306C94.7539 37.8214 99.0171 42.292 104.276 42.292Z" fill="#FF7F75"/>
<path opacity="0.72" d="M108.408 34.0868C108.642 33.833 108.84 33.5447 108.993 33.2307C109.265 32.687 109.338 32.0582 109.198 31.4623C109.058 30.8664 108.716 30.3447 108.235 29.9954C107.922 29.7693 107.564 29.6215 107.188 29.5643C106.812 29.5075 106.428 29.542 106.067 29.6659C106.047 29.1059 105.854 28.568 105.517 28.1335C105.18 27.699 104.718 27.3913 104.199 27.2569C103.681 27.1228 103.134 27.169 102.643 27.3887C102.152 27.6088 101.742 27.9907 101.476 28.4763C100.912 29.4954 100.811 30.8516 100.898 32.007C100.944 32.6113 101.048 33.2091 101.209 33.7913C101.288 34.0868 101.711 35.784 102 35.837C103.878 36.1704 106.905 35.7045 108.408 34.0868Z" fill="white"/>
</g>
<g opacity="0.72">
<path opacity="0.72" d="M100.031 144.111C103.786 144.111 106.829 140.919 106.829 136.981C106.829 133.044 103.786 129.852 100.031 129.852C96.2764 129.852 93.2327 133.044 93.2327 136.981C93.2327 140.919 96.2764 144.111 100.031 144.111Z" fill="#FF7F75"/>
<path opacity="0.72" d="M102.978 138.266C103.146 138.084 103.286 137.878 103.394 137.652C103.587 137.265 103.639 136.816 103.54 136.392C103.441 135.967 103.198 135.595 102.856 135.345C102.631 135.182 102.374 135.075 102.103 135.035C101.833 134.994 101.558 135.02 101.299 135.11C101.282 134.712 101.144 134.33 100.903 134.021C100.662 133.713 100.333 133.494 99.9646 133.398C99.5954 133.302 99.2071 133.334 98.857 133.489C98.5067 133.644 98.2137 133.913 98.0222 134.257C97.6541 135.039 97.51 135.915 97.6068 136.78C97.6401 137.212 97.7152 137.638 97.8308 138.053C97.8886 138.262 98.192 139.478 98.3943 139.512C99.7453 139.739 101.905 139.402 102.978 138.266Z" fill="white"/>
</g>
<path d="M84.9095 51.3946L80.3847 61.4287C78.7429 65.0697 80.2265 69.4172 83.6979 71.139L93.2662 75.8842C96.738 77.606 100.883 76.0505 102.525 72.4096L107.05 62.3751C108.692 58.7341 107.208 54.3866 103.736 52.6648L94.1686 47.9196C90.6968 46.1978 86.5513 47.7536 84.9095 51.3946Z" fill="#236969"/>
<path d="M104.471 64.1355L101.195 71.4015C100.509 72.9191 99.278 74.0905 97.7709 74.6583C96.2639 75.2262 94.6037 75.1451 93.1537 74.4322L84.8454 70.3105C83.3987 69.5907 82.2828 68.2996 81.7413 66.7195C81.1998 65.1394 81.2768 63.3987 81.9555 61.8776L82.1759 61.3852C84.4336 59.491 88.3385 56.9452 89.7617 60.4191C91.8135 65.4197 94.4794 63.8021 97.8894 61.7109C100.75 59.9418 104.168 59.3546 104.471 64.1355Z" fill="#FFE9C5"/>
<path d="M91.5924 56.4073C93.0048 56.4073 94.1499 55.2064 94.1499 53.7252C94.1499 52.2439 93.0048 51.043 91.5924 51.043C90.18 51.043 89.0349 52.2439 89.0349 53.7252C89.0349 55.2064 90.18 56.4073 91.5924 56.4073Z" fill="white"/>
<path d="M116.483 84.194L110.523 97.4099C108.362 102.203 110.315 107.926 114.884 110.192L127.486 116.442C132.056 118.709 137.513 116.661 139.674 111.868L145.634 98.6521C147.795 93.8591 145.843 88.1365 141.272 85.8699L128.67 79.6199C124.101 77.3534 118.644 79.4013 116.483 84.194Z" fill="#236969"/>
<path d="M142.234 100.973L137.899 110.539C136.993 112.534 135.371 114.072 133.387 114.817C131.403 115.561 129.219 115.452 127.311 114.512L116.388 109.095C114.485 108.145 113.018 106.444 112.308 104.363C111.598 102.283 111.703 99.992 112.598 97.9918L112.891 97.344C115.864 94.8588 121.001 91.4986 122.875 96.0711C125.581 102.655 129.089 100.526 133.579 97.7717C137.332 95.457 141.836 94.677 142.234 100.973Z" fill="#FFE9C5"/>
<path d="M125.278 90.7977C127.137 90.7977 128.644 89.2169 128.644 87.267C128.644 85.3168 127.137 83.7363 125.278 83.7363C123.418 83.7363 121.911 85.3168 121.911 87.267C121.911 89.2169 123.418 90.7977 125.278 90.7977Z" fill="#FFE9C5"/>
<path d="M140.966 46.5425C141.468 47.5115 141.833 48.5514 142.05 49.63C142.435 51.6154 142.321 53.671 141.722 55.5966C141.122 57.5222 140.057 59.2519 138.629 60.6161C137.498 61.6655 136.057 62.4876 134.908 63.5862C134.073 64.3438 133.459 65.3326 133.135 66.4388C133.074 66.8165 132.929 67.1733 132.712 67.4806C132.04 68.2382 131.386 67.0487 130.805 66.8328C129.872 66.5153 128.86 66.568 127.962 66.9805C125.601 68.0011 122.978 68.1375 120.532 67.3669C118.087 66.5964 115.969 64.9659 114.536 62.7501C113.103 60.5339 112.441 57.8677 112.663 55.2C112.884 52.5326 113.975 50.0262 115.752 48.1033C117.522 46.2091 119.841 45.0082 122.077 43.7656C124.05 42.667 126.011 41.4926 128.15 40.8448C133.185 39.2765 138.535 41.8942 140.966 46.5425Z" fill="#236969"/>
<path d="M120.766 60.2411C122.097 60.2411 123.175 59.1099 123.175 57.7143C123.175 56.3187 122.097 55.1875 120.766 55.1875C119.435 55.1875 118.357 56.3187 118.357 57.7143C118.357 59.1099 119.435 60.2411 120.766 60.2411Z" fill="#FFE9C5"/>
<path d="M127.257 56.6005C128.588 56.6005 129.667 55.4693 129.667 54.0737C129.667 52.6781 128.588 51.5469 127.257 51.5469C125.926 51.5469 124.848 52.6781 124.848 54.0737C124.848 55.4693 125.926 56.6005 127.257 56.6005Z" fill="#FFE9C5"/>
<path d="M133.347 53.1835C134.678 53.1835 135.756 52.0523 135.756 50.6566C135.756 49.2614 134.678 48.1298 133.347 48.1298C132.016 48.1298 130.938 49.2614 130.938 50.6566C130.938 52.0523 132.016 53.1835 133.347 53.1835Z" fill="#FFE9C5"/>
<path d="M215.781 216.707V216.767L214.889 238.277L214.39 250.063C214.39 249.627 214.412 249.176 214.437 248.741C208.271 246.578 200.349 243.502 194.237 241.327C182.208 237.023 173.145 233.716 162.37 231.117C161.719 227.825 161.105 220.764 164.129 210.456C168.464 195.75 169.89 180.827 167.687 177.944C167.666 177.912 167.639 177.883 167.607 177.861C166.04 171.932 161.893 175.77 161.893 175.77C161.893 175.77 161.918 175.831 161.929 175.865C161.066 174.365 160.118 172.92 159.09 171.538C159.124 171.324 159.178 171.113 159.252 170.91C160.585 166.705 167.687 165.693 167.687 165.693C178.083 166.496 183.552 171.357 186.312 177.74C188.743 185.798 187.309 194.534 186.995 202.8C186.868 206.383 186.381 211.892 188.989 214.794C191.398 219.571 197.46 217.506 199.103 216.983C199.638 216.824 201.025 216.726 202.845 216.665C206.555 216.57 212.013 216.642 215.34 216.703C215.503 216.707 215.644 216.707 215.781 216.707Z" fill="#236969"/>
<path d="M71.9016 23.3693C71.1448 23.5462 70.3671 23.6072 69.5933 23.5511C68.1744 23.4337 66.8086 22.9313 65.6303 22.0941C64.4519 21.2565 63.5012 20.1124 62.8709 18.7739C62.3904 17.717 62.1484 16.4782 61.6246 15.4023C61.2829 14.6297 60.741 13.9734 60.0605 13.5081C59.8177 13.3868 59.6057 13.2063 59.4428 12.9816C59.0815 12.33 60.0063 12.0875 60.27 11.7011C60.6728 11.0725 60.8436 10.3117 60.7504 9.5607C60.5359 7.5952 60.9755 5.61232 61.9945 3.94742C63.0132 2.28253 64.5495 1.03783 66.3426 0.423857C68.1358 -0.190118 70.0763 -0.135642 71.8359 0.578004C73.5951 1.29165 75.0656 2.62071 75.998 4.34038C76.9155 6.04134 77.2514 8.00749 77.6343 9.92059C77.9739 11.6064 78.3568 13.2998 78.3568 15.0235C78.3893 19.0733 75.532 22.5131 71.9016 23.3693Z" fill="#236969"/>
<path d="M68.4785 7.95464C69.4578 7.95464 70.2522 7.12185 70.2522 6.09457C70.2522 5.06729 69.4578 4.2345 68.4785 4.2345C67.4989 4.2345 66.7049 5.06729 66.7049 6.09457C66.7049 7.12185 67.4989 7.95464 68.4785 7.95464Z" fill="white"/>
<path d="M69.6115 13.5158C70.5912 13.5158 71.3852 12.683 71.3852 11.6558C71.3852 10.6285 70.5912 9.79568 69.6115 9.79568C68.6322 9.79568 67.8379 10.6285 67.8379 11.6558C67.8379 12.683 68.6322 13.5158 69.6115 13.5158Z" fill="white"/>
<path d="M70.6786 18.7362C71.6579 18.7362 72.4523 17.9034 72.4523 16.8762C72.4523 15.8488 71.6579 15.0161 70.6786 15.0161C69.699 15.0161 68.905 15.8488 68.905 16.8762C68.905 17.9034 69.699 18.7362 70.6786 18.7362Z" fill="white"/>
<g opacity="0.72">
<path opacity="0.72" d="M177.656 90.9985C185.102 90.9985 191.137 84.6686 191.137 76.8605C191.137 69.0523 185.102 62.7224 177.656 62.7224C170.211 62.7224 164.175 69.0523 164.175 76.8605C164.175 84.6686 170.211 90.9985 177.656 90.9985Z" fill="#2DB6A3"/>
<path opacity="0.72" d="M178.161 83.4636C178.616 83.6155 179.09 83.6935 179.566 83.6947C180.395 83.706 181.198 83.3999 181.827 82.8343C182.455 82.2687 182.865 81.4823 182.98 80.6223C183.055 80.0609 183.003 79.4892 182.831 78.952C182.659 78.4149 182.37 77.9273 181.987 77.5273C182.647 77.1424 183.171 76.5427 183.478 75.8187C183.785 75.0948 183.86 74.286 183.691 73.5135C183.522 72.7411 183.118 72.0474 182.54 71.5368C181.963 71.0261 181.242 70.7261 180.488 70.6817C178.902 70.587 177.204 71.3182 175.864 72.1668C175.167 72.6142 174.513 73.1332 173.913 73.7162C173.606 74.0117 171.829 75.6596 171.952 76.0725C172.746 78.7888 175.243 82.5127 178.161 83.4636Z" fill="white"/>
</g>
<path d="M183.916 134.564C183.073 135.849 182.056 136.998 180.896 137.974C178.75 139.752 176.199 140.917 173.495 141.352C170.791 141.788 168.025 141.48 165.468 140.459C163.478 139.629 161.571 138.239 159.512 137.428C158.066 136.806 156.483 136.623 154.942 136.898C154.449 137.059 153.927 137.095 153.418 137.004C152.081 136.595 153.092 134.973 152.98 134.064C152.767 132.626 152.059 131.319 150.99 130.39C148.234 127.916 146.378 124.52 145.736 120.776C145.095 117.032 145.707 113.171 147.468 109.846C149.231 106.521 152.034 103.936 155.404 102.531C158.775 101.125 162.505 100.985 165.963 102.132C169.38 103.269 172.303 105.576 175.229 107.747C177.808 109.66 180.463 111.535 182.623 113.929C187.713 119.616 187.969 128.382 183.916 134.564Z" fill="#236969"/>
<path d="M157.565 118.502C159.448 118.502 160.975 116.901 160.975 114.926C160.975 112.951 159.448 111.349 157.565 111.349C155.682 111.349 154.155 112.951 154.155 114.926C154.155 116.901 155.682 118.502 157.565 118.502Z" fill="#FFE9C5"/>
<path d="M166.093 124.783C167.977 124.783 169.503 123.182 169.503 121.207C169.503 119.232 167.977 117.631 166.093 117.631C164.21 117.631 162.683 119.232 162.683 121.207C162.683 123.182 164.21 124.783 166.093 124.783Z" fill="#FFE9C5"/>
<path d="M174.098 130.674C175.982 130.674 177.508 129.073 177.508 127.098C177.508 125.123 175.982 123.521 174.098 123.521C172.215 123.521 170.688 125.123 170.688 127.098C170.688 129.073 172.215 130.674 174.098 130.674Z" fill="#FFE9C5"/>
<g opacity="0.54">
<path opacity="0.54" d="M80.3626 28.4418C80.3175 29.0593 80.2268 29.6727 80.0917 30.2754L78.5817 37.1436C78.1194 39.2461 77.5992 41.4623 76.1651 43.008C73.492 45.8757 69.0164 45.2203 65.2849 44.349L56.1241 42.2162C54.0217 41.7237 51.8832 41.2236 49.9832 40.125C48.0831 39.0264 46.4648 37.2421 46.0096 35.0259C45.6881 33.3932 46.0349 31.7074 46.3709 30.0784L47.7977 23.4791C48.2565 21.3198 48.7766 19.0354 50.2613 17.4671C52.9091 14.6675 57.2945 15.3039 60.9682 16.1374L70.3349 18.2702C75.9917 19.5696 80.8142 22.3199 80.3626 28.4418Z" fill="#FF7F75"/>
<path opacity="0.54" d="M67.7298 28.6275C68.1218 29.0105 68.4107 29.4946 68.5675 30.0318C68.7243 30.569 68.7438 31.1399 68.6239 31.6873C68.5036 32.2347 68.2485 32.7393 67.8837 33.1504C67.5185 33.5614 67.0572 33.8649 66.545 34.0296L63.7527 34.9275L60.964 35.8215C60.4507 35.9871 59.9052 36.0075 59.3822 35.881C58.8587 35.7545 58.3769 35.4855 57.9846 35.1014C57.5919 34.7172 57.3033 34.2312 57.1472 33.6925C56.9912 33.1538 56.9731 32.5814 57.0952 32.0332L57.749 29.048L58.4029 26.0666C58.5239 25.5192 58.7796 25.0146 59.1452 24.6039C59.5104 24.1929 59.9724 23.8898 60.4846 23.7254C60.9972 23.5606 61.5416 23.5401 62.0639 23.6659C62.5859 23.7917 63.0674 24.0591 63.4601 24.4414L65.595 26.5288L67.7298 28.6275Z" fill="white"/>
</g>
<g opacity="0.54">
<path opacity="0.54" d="M183.306 41.6631C183.261 42.2806 183.17 42.8936 183.035 43.4967L181.525 50.3763C181.063 52.4788 180.543 54.695 179.109 56.2368C176.436 59.1084 171.96 58.4492 168.228 57.5817L159.068 55.4451C156.965 54.9564 154.827 54.4525 152.927 53.3577C151.027 52.2628 149.408 50.471 148.953 48.2586C148.632 46.6258 148.978 44.94 149.314 43.311L150.745 36.7383C151.2 34.5751 151.72 32.2946 153.205 30.7224C155.853 27.9266 160.238 28.5593 163.912 29.3965L173.264 31.5142C178.935 32.7984 183.758 35.5525 183.306 41.6631Z" fill="#22C7A9"/>
<path opacity="0.54" d="M170.674 41.8567C171.065 42.2397 171.354 42.7246 171.51 43.2618C171.667 43.799 171.687 44.3703 171.567 44.9177C171.447 45.4655 171.192 45.9701 170.827 46.3819C170.462 46.7933 170.001 47.0971 169.489 47.2627L166.696 48.1567L163.908 49.0545C163.394 49.2197 162.849 49.2402 162.325 49.1136C161.802 48.9875 161.32 48.7185 160.928 48.334C160.536 47.9499 160.247 47.4638 160.091 46.9255C159.935 46.3868 159.916 45.8144 160.039 45.2662L160.693 42.2848L161.347 39.3034C161.467 38.756 161.723 38.2514 162.089 37.8403C162.454 37.4293 162.916 37.1266 163.428 36.9618C163.941 36.797 164.485 36.7766 165.007 36.9023C165.53 37.0281 166.011 37.2956 166.404 37.6782L168.539 39.7655L170.674 41.8567Z" fill="white"/>
</g>
<g opacity="0.54">
<path opacity="0.54" d="M140.077 133.826C140.054 134.113 140.01 134.398 139.947 134.678L139.246 137.887C139.029 138.864 138.787 139.895 138.119 140.614C136.876 141.952 134.792 141.645 133.062 141.239L128.796 140.247C127.805 140.067 126.844 139.738 125.942 139.273C125.492 139.037 125.095 138.703 124.777 138.293C124.46 137.884 124.229 137.408 124.1 136.898C124.001 136.126 124.059 135.341 124.27 134.595L124.92 131.526C125.133 130.522 125.375 129.458 126.068 128.727C127.3 127.423 129.341 127.719 131.05 128.109L135.413 129.102C138.04 129.693 140.286 130.973 140.077 133.826Z" fill="#FF7F75"/>
<path opacity="0.54" d="M134.192 133.913C134.375 134.091 134.51 134.317 134.583 134.567C134.656 134.817 134.665 135.083 134.609 135.338C134.553 135.594 134.434 135.828 134.264 136.02C134.094 136.211 133.878 136.352 133.639 136.429L132.342 136.845L131.042 137.262C130.803 137.34 130.549 137.351 130.305 137.293C130.062 137.235 129.836 137.11 129.653 136.932C129.47 136.754 129.335 136.528 129.261 136.277C129.188 136.026 129.179 135.76 129.236 135.504L129.554 134.099L129.857 132.708C129.912 132.453 130.031 132.217 130.201 132.025C130.371 131.832 130.586 131.691 130.826 131.614C131.065 131.537 131.319 131.528 131.562 131.587C131.806 131.646 132.03 131.771 132.212 131.951L133.206 132.921L134.192 133.913Z" fill="white"/>
</g>
<g opacity="0.54">
<path opacity="0.54" d="M95.1075 0.798347C95.4037 0.959996 95.6884 1.14358 95.96 1.34765L98.9943 3.67369C99.9263 4.38211 100.898 5.15114 101.339 6.26491C102.159 8.33712 100.851 10.6063 99.6048 12.4247L96.5452 16.895C95.8899 17.9592 95.092 18.9187 94.1755 19.7438C93.2219 20.5015 91.9865 21.0091 90.8052 20.7553C89.9347 20.5735 89.1833 19.9976 88.4609 19.4711L85.5349 17.27C84.5776 16.5502 83.5734 15.7547 83.1291 14.6182C82.338 12.5725 83.6132 10.3487 84.8305 8.55685L87.9335 3.97297C89.7938 1.20749 92.2032 -0.788962 95.1075 0.798347Z" fill="#FF7F75"/>
<path opacity="0.54" d="M92.42 7.6513C92.6928 7.52455 92.9922 7.475 93.2888 7.50761C93.5854 7.54019 93.8686 7.65377 94.1102 7.83701C94.3519 8.02025 94.5433 8.26676 94.6658 8.55194C94.7882 8.83709 94.837 9.15091 94.8078 9.46212L94.6344 11.1669L94.461 12.8716C94.4292 13.184 94.3197 13.4821 94.1431 13.7359C93.9664 13.9898 93.7295 14.1903 93.4557 14.3175C93.1815 14.4446 92.8806 14.4938 92.5826 14.4601C92.2849 14.4264 92.0006 14.311 91.759 14.1256L90.4405 13.1179L89.122 12.114C88.8792 11.9292 88.6871 11.6805 88.5653 11.3931C88.4436 11.1056 88.3963 10.7895 88.4281 10.4767C88.4599 10.1639 88.57 9.86543 88.747 9.61146C88.924 9.35753 89.1617 9.15701 89.4363 9.03026L90.9281 8.33699L92.42 7.6513Z" fill="white"/>
</g>
<path d="M238.122 286.768C238.121 286.834 238.113 286.9 238.1 286.965C238.095 286.981 238.095 286.998 238.1 287.014C237.592 290.552 236.192 293.883 234.044 296.663C234.018 296.686 234.008 296.724 233.986 296.747C230.684 301.061 225.898 304.175 221.054 306.13C216.105 308.149 211.088 308.964 207.515 308.684H207.436C203.065 308.343 198.268 308.937 194.07 309.763C193.629 309.85 193.189 309.934 192.748 310.032C189.977 310.616 187.243 311.343 184.534 312.146L184.024 312.294L183.685 312.389C181.156 295.023 179.444 277.24 179.444 277.24L231.1 286.867C233.425 287.309 235.809 287.276 238.122 286.768Z" fill="#236969"/>
<path d="M132.04 204.22C129.324 207.046 125.686 207.592 122.114 208.425C113.997 210.32 107.191 208.168 106.834 198.383C106.603 192.086 107.238 185.786 110.872 180.558C115.225 174.296 121.912 170.125 128.573 167.08C128.573 167.08 131.629 183.475 145.55 184.188C159.472 184.9 156.084 204.148 139.771 200.94" stroke="black" stroke-width="4.47" stroke-miterlimit="10"/>
<path d="M142.506 209.138C142.867 209.138 143.199 209.138 143.535 209.111C143.617 209.105 143.699 209.105 143.781 209.111H143.813L144.453 209.05" stroke="black" stroke-width="4.47" stroke-miterlimit="10"/>
<path d="M157.929 169.091C155.647 166.246 152.919 163.828 149.863 161.943C149.523 161.708 149.171 161.493 148.808 161.299C148.447 161.083 148.086 160.874 147.724 160.681C146.962 160.268 146.171 159.878 145.362 159.545C140.585 157.447 135.456 156.374 130.277 156.389C102.419 156.389 110.16 181.668 110.16 181.668" stroke="black" stroke-width="4.47" stroke-miterlimit="10"/>
<path d="M162.553 230.867C161.592 225.496 162.795 217.135 164.128 210.448C165.324 204.493 166.632 199.875 166.632 199.875C168.604 187.722 168.521 181.206 167.607 177.854C166.039 171.932 161.892 175.77 161.892 175.77" stroke="black" stroke-width="4.47" stroke-miterlimit="10"/>
<path d="M167.607 177.854C166.039 171.932 161.892 175.77 161.892 175.77C161.175 174.058 160.29 172.429 159.251 170.91C158.832 170.299 158.392 169.702 157.929 169.121C159.168 165.67 162.473 163.613 165.876 163.337C174.809 162.617 183.616 168.818 186.307 177.732C188.739 185.79 187.304 194.526 186.99 202.792C186.864 206.376 186.376 211.884 188.984 214.786C189.121 214.934 189.251 215.066 189.4 215.199C191.567 217.157 195.02 217.267 199.113 216.976C200.305 216.889 201.559 216.782 202.855 216.657C206.829 216.279 211.164 215.953 215.35 216.695L215.766 216.767C215.639 223.927 215.22 231.11 214.874 238.27C214.689 241.755 214.512 245.244 214.422 248.733C208.256 246.57 200.334 243.494 194.222 241.319L190.964 240.141C180.521 236.41 172.154 233.466 162.387 231.11C158.619 230.197 154.646 229.382 150.253 228.629L145.582 227.769C145.269 227.711 144.986 227.539 144.782 227.283C144.578 227.028 144.468 226.704 144.47 226.371V209.039C147.589 208.761 150.605 207.731 153.281 206.027C155.956 204.323 158.22 201.994 159.894 199.22C164.413 191.598 164.843 183.797 162.372 176.952C162.284 176.678 162.182 176.41 162.065 176.149C162.038 176.07 162.007 175.993 161.971 175.918C161.971 175.895 161.95 175.857 161.939 175.831" stroke="black" stroke-width="4.47" stroke-miterlimit="10"/>
<path d="M47.035 240.141C48.4799 228.397 49.1446 216.453 50.5461 204.641" stroke="black" stroke-width="4.47" stroke-miterlimit="10"/>
<path d="M50.7786 202.792C51.1723 199.595 51.6383 196.397 52.2235 193.238C52.2452 193.083 52.2704 192.935 52.303 192.791C52.6281 190.92 52.9893 189.059 53.3866 187.199C54.5932 181.634 58.8051 177.562 61.7997 173.027L61.9839 172.542C68.4445 162.685 72.0214 151.065 72.2754 139.107C72.3476 134.78 72.1851 126.226 67.4566 124.461C64.8015 123.465 61.9839 125.412 60.5137 127.635C59.9097 128.553 59.4239 129.551 59.0688 130.602" stroke="black" stroke-width="4.47" stroke-miterlimit="10"/>
<path d="M93.7174 340.941C82.1834 306.596 87.6524 269.077 87.6524 269.077L70.6421 269.637L25.77 271.13C23.1345 271.221 20.5113 270.718 18.0769 269.655C15.643 268.591 13.455 266.992 11.6608 264.965C9.86689 262.939 8.5083 260.532 7.67747 257.907C6.84664 255.283 6.56307 252.502 6.84519 249.752L20.1746 198.72" stroke="black" stroke-width="4.47" stroke-miterlimit="10"/>
<path d="M20.8202 196.227L21.9906 191.757L23.3488 186.688" stroke="black" stroke-width="4.47" stroke-miterlimit="10"/>
<path d="M24.5062 182.324L25.2829 179.395C26.3113 175.507 26.057 171.369 24.5604 167.652L23.018 163.787C22.0101 160.567 21.6958 159.01 22.9602 155.862C23.5584 154.377 24.3978 153.012 25.4418 151.828C28.487 148.305 32.7748 146.554 37.1926 145.956C41.6105 145.357 46.4871 145.823 50.0416 148.827C52.4546 150.865 54.7376 155.718 53.159 158.889C52.0139 161.196 49.59 161.867 47.5274 161.041C46.8053 160.758 46.1551 160.304 45.6273 159.715C43.1927 157.04 38.0415 156.457 36.2354 159.06" stroke="black" stroke-width="4.47" stroke-miterlimit="10"/>
<path d="M214.321 252.988C214.321 252.037 214.354 251.093 214.39 250.131V250.055C214.39 249.62 214.412 249.169 214.437 248.733" stroke="black" stroke-width="4.47" stroke-miterlimit="10"/>
<path d="M209.687 161.992C205.457 164.363 200.263 170.326 209.026 184.343C211.916 188.961 214.968 193.954 215.398 199.655C215.798 205.353 215.926 211.068 215.781 216.779" stroke="black" stroke-width="4.47" stroke-miterlimit="10"/>
<path d="M168.662 275.252L178.719 277.123L179.441 277.256L184.054 278.119L231.09 286.882C233.419 287.326 235.807 287.292 238.123 286.783C242.145 285.895 245.769 283.624 248.42 280.329C251.071 277.035 252.598 272.907 252.757 268.599L245.807 208.929L244.268 196.193C243.779 192.187 244.599 188.126 246.594 184.673L248.657 181.074C248.657 181.074 252.247 175.581 245.965 175.179C242.581 174.971 239.059 175.937 235.999 177.391C234.251 178.206 231.794 179.664 230.808 181.668C230.407 182.427 230.272 183.309 230.425 184.161C231.148 188.074 235.844 189.726 238.943 188.074" stroke="black" stroke-width="4.47" stroke-miterlimit="10"/>
<path d="M248.038 175.463C248.038 175.463 251.589 173.247 249.187 167.796C248.335 165.856 245.752 164.511 240.192 164.882C225.382 165.871 219.581 181.843 230.826 181.668" stroke="black" stroke-width="4.47" stroke-miterlimit="10"/>
<path d="M244.664 164.856C247.951 160.105 242.136 155.559 237.898 155.715C233.903 155.862 229.861 157.412 226.361 159.351C221.491 162.049 215.206 167.273 217.005 173.883C217.536 175.831 221.737 178.236 224.482 176.846" stroke="black" stroke-width="4.47" stroke-miterlimit="10"/>
<path d="M216.695 171.535C216.695 171.535 216.695 171.535 216.695 171.557C214.401 176.153 203.542 171.557 209.672 161.992C211.104 159.876 212.821 157.988 214.769 156.389C230.057 143.289 233.474 156.609 233.452 155.817" stroke="black" stroke-width="4.47" stroke-miterlimit="10"/>
<path d="M223.347 176.952C223.347 176.952 228.939 181.119 227.223 188.063" stroke="black" stroke-width="4.47" stroke-miterlimit="10"/>
<path d="M26.4778 143.618C26.1165 142.126 26.1635 140.243 27.0088 137.834C28.2261 134.371 31.7734 132.098 35.2268 130.602C36.4875 130.056 37.7554 129.605 38.8391 129.253C42.6067 128.041 46.7428 127.397 50.7597 127.821C52.1132 127.959 53.4519 128.228 54.7585 128.624C56.2655 129.08 57.7076 129.745 59.0463 130.602C62.3479 132.731 64.5839 135.962 65.9277 140.205C67.0981 143.865 67.5496 148.214 64.6526 150.498" stroke="black" stroke-width="4.47" stroke-miterlimit="10"/>
<path d="M64.9163 199.193L63.8506 204.603C63.8152 204.785 63.7455 204.958 63.6451 205.111C63.5447 205.264 63.4161 205.394 63.2669 205.494C63.1173 205.593 62.9504 205.66 62.776 205.691C62.6011 205.721 62.4227 205.715 62.2504 205.671C58.1504 204.652 54.5562 203.705 50.7777 202.792C48.9029 202.33 46.9667 201.894 44.9149 201.444C36.8956 199.705 28.8872 197.742 20.8245 196.227C17.4542 195.594 14.0803 195.045 10.6848 194.632C8.7847 194.401 6.85934 194.306 4.94844 194.159C4.53085 194.149 4.12591 194.005 3.78888 193.746C1.98273 192.359 3.78889 187.851 4.18263 185.98C4.18263 185.957 4.18263 185.93 4.18263 185.908C4.46077 184.472 12.3284 184.885 23.3278 186.684C27.1641 187.317 31.3796 188.105 35.7975 189.056C42.007 190.393 47.6061 191.836 52.1829 193.223C52.9704 193.465 53.7253 193.696 54.4442 193.927C54.4442 193.927 54.4442 193.927 54.4659 193.927C55.3798 194.231 56.2395 194.522 57.0487 194.814C62.1601 196.644 65.1041 198.235 64.9163 199.193Z" fill="#DADADA"/>
<path d="M64.9163 199.193L63.8506 204.603C63.8152 204.785 63.7455 204.958 63.6451 205.111C63.5447 205.264 63.4161 205.394 63.2669 205.494C63.1173 205.593 62.9504 205.66 62.776 205.691C62.6011 205.721 62.4227 205.715 62.2504 205.671C58.1504 204.652 54.5562 203.705 50.7777 202.792C48.9029 202.33 46.9667 201.894 44.9149 201.444C36.8956 199.705 28.8872 197.742 20.8245 196.227C17.4542 195.594 14.0803 195.045 10.6848 194.632C8.7847 194.401 6.85934 194.306 4.94844 194.159C4.53085 194.149 4.12591 194.005 3.78888 193.746C1.98273 192.359 3.78889 187.851 4.18263 185.98C4.18263 185.957 4.18263 185.93 4.18263 185.908C4.46077 184.472 12.3284 184.885 23.3278 186.684C27.1641 187.317 31.3796 188.105 35.7975 189.056C42.007 190.393 47.6061 191.836 52.1829 193.223C52.9704 193.465 53.7253 193.696 54.4442 193.927C54.4442 193.927 54.4442 193.927 54.4659 193.927C55.3798 194.231 56.2395 194.522 57.0487 194.814C62.1601 196.644 65.1041 198.235 64.9163 199.193Z" stroke="black" stroke-opacity="0.85" stroke-width="4.47" stroke-miterlimit="10"/>
<path d="M53.6672 155.976L54.6931 158.132C55.9827 159.613 57.7672 160.548 60.2127 159.904C65.0099 158.654 65.4831 154.483 64.6486 150.498C64.5052 149.774 64.3195 149.061 64.0923 148.361C62.9689 144.846 61.2314 142.016 58.7967 139.951C57.0668 138.483 55.0677 137.402 52.9231 136.777C51.1758 136.247 49.3729 135.946 47.5552 135.879C43.9837 135.75 40.4177 136.262 37.0109 137.394C33.6045 138.489 28.9446 140.372 26.4666 143.603C25.9117 144.313 25.4721 145.114 25.1662 145.975C24.404 148.149 24.2739 149.911 24.5412 151.335L24.7977 152.661" stroke="black" stroke-width="4.47" stroke-miterlimit="10"/>
<path d="M54.9967 128.708L56.1888 123.529L57.6048 117.43C57.8049 116.55 57.8298 115.637 57.6785 114.747C57.5271 113.857 57.2024 113.009 56.7248 112.256C56.2477 111.504 55.6274 110.862 54.9032 110.372C54.1785 109.881 53.3658 109.553 52.5151 109.406C52.182 109.348 51.845 109.32 51.5072 109.323C50.0778 109.319 48.6907 109.83 47.577 110.769C46.4634 111.709 45.6907 113.021 45.388 114.486C45.0268 116.252 44.5752 118.4 44.0767 120.82C43.6035 123.116 43.0797 125.631 42.5234 128.283" stroke="black" stroke-width="4.47" stroke-miterlimit="10"/>
<path d="M40.8475 136.426V136.413" stroke="black" stroke-width="2.98" stroke-miterlimit="10"/>
<path d="M36.2451 159.056C35.8839 160.916 35.678 162.087 35.6888 162.287C35.6888 162.287 35.6888 162.287 35.6888 162.314C34.1247 173.338 29.5226 179.233 24.5159 182.305C21.4538 184.132 18.0337 185.201 14.5171 185.43" stroke="black" stroke-width="4.47" stroke-miterlimit="10"/>
<path d="M47.556 161.037C47.556 161.037 39.1682 184.483 52.2845 192.795C52.978 193.232 53.7026 193.611 54.4518 193.931C55.3495 194.322 56.276 194.635 57.2225 194.867" stroke="black" stroke-width="4.47" stroke-miterlimit="10"/>
<path d="M63.1569 205.561C63.1569 205.561 63.2147 206.645 50.5464 204.641C46.2116 203.959 40.385 202.913 32.5499 201.334C27.6372 200.349 23.5553 199.474 20.1742 198.72C2.40886 194.734 3.78515 193.749 3.78515 193.749" stroke="black" stroke-width="4.47" stroke-miterlimit="10"/>
<path d="M98.8498 73.7692C96.1478 88.7899 87.2471 104.602 76.4536 114.751C72.0393 118.919 66.9063 121.824 61.365 122.968C59.6647 123.331 57.9347 123.518 56.1994 123.525L57.6046 117.43C57.9496 115.928 57.7816 114.348 57.1292 112.963C56.4772 111.579 55.3823 110.478 54.0356 109.853C53.5494 109.634 53.0401 109.475 52.5185 109.38C52.1843 109.322 51.8459 109.294 51.507 109.296C50.0747 109.294 48.6851 109.808 47.5711 110.752C46.457 111.696 45.6862 113.013 45.3878 114.482C45.1674 115.589 44.9001 116.843 44.6111 118.214C30.8844 108.698 24.9313 88.3429 25.5924 71.8144C25.8019 66.3213 26.0909 59.0894 28.3847 53.4979C29.1588 51.5052 30.3144 49.7001 31.7802 48.1942C38.2824 41.7768 47.1831 38.8484 56.362 38.4089C63.407 38.7575 70.3405 40.3906 76.8509 43.2353C88.9883 48.6109 101.653 58.1423 98.8498 73.7692Z" fill="#236969"/>
<path d="M98.8498 73.7692C96.1478 88.7899 87.2471 104.602 76.4536 114.751C72.0393 118.919 66.9063 121.824 61.365 122.968L62.6474 117.43C62.8475 116.55 62.8724 115.637 62.7211 114.747C62.5697 113.857 62.2449 113.009 61.7674 112.256C61.2902 111.504 60.67 110.862 59.9457 110.372C59.2211 109.881 58.4083 109.553 57.5576 109.406C57.2246 109.348 56.8875 109.32 56.5498 109.323C55.6789 109.319 54.8173 109.509 54.0212 109.88C53.535 109.661 53.0256 109.501 52.504 109.406C52.1699 109.348 51.8314 109.32 51.4926 109.323C50.0664 109.322 48.6826 109.834 47.5721 110.773C46.4614 111.712 45.6905 113.02 45.3878 114.482C45.1674 115.589 44.9001 116.843 44.6111 118.214C30.8844 108.698 24.9313 88.3429 25.5924 71.8144C25.8019 66.3213 26.0909 59.0894 28.3847 53.4979C29.1588 51.5052 30.3144 49.7001 31.7802 48.1942C38.2824 41.7768 47.1831 38.8484 56.362 38.4089C63.407 38.7575 70.3405 40.3906 76.8509 43.2353C88.9883 48.6109 101.653 58.1423 98.8498 73.7692Z" fill="#236969" fill-opacity="0.85"/>
<path d="M98.8511 73.773C96.1527 88.7937 87.252 104.606 76.4548 114.755C70.6752 120.188 63.6998 123.491 56.1898 123.529L57.6058 117.43C57.8056 116.55 57.8305 115.637 57.6792 114.747C57.5278 113.857 57.2034 113.009 56.7259 112.256C56.2483 111.504 55.6281 110.862 54.9039 110.372C54.1796 109.881 53.3668 109.553 52.5161 109.406C52.1831 109.348 51.8457 109.32 51.5083 109.323C50.0789 109.319 48.6914 109.83 47.5777 110.769C46.4641 111.709 45.6914 113.021 45.389 114.486C45.0278 116.252 44.5763 118.4 44.0778 120.82C27.1361 112.944 19.8212 90.059 20.5545 71.8182C20.7604 66.3251 21.0494 59.0932 23.3468 53.5016C24.1195 51.5082 25.275 49.7027 26.7424 48.198C39.5335 35.5828 61.5433 36.4541 76.8522 43.239C88.9859 48.6147 101.654 58.1423 98.8511 73.773Z" stroke="black" stroke-width="4.47" stroke-miterlimit="10"/>
<path d="M98.778 74.3147C101.7 77.9818 104.442 84.1265 102.029 93.2564C101.658 94.6971 101.127 96.0866 100.447 97.397C96.6106 104.595 89.2054 105.856 84.2132 105.781" stroke="black" stroke-width="4.47" stroke-miterlimit="10"/>
<path d="M96.5531 81.9937C99.0817 85.1683 101.419 90.1954 100.444 97.4046C100.289 98.5619 100.061 99.7071 99.7609 100.833C96.1486 114.441 82.8878 113.77 78.3363 113.107" stroke="black" stroke-width="4.47" stroke-miterlimit="10"/>
<path d="M25.7328 100.761C22.908 101.371 6.92358 97.9312 6.72851 83.956C6.67108 82.0619 7.01172 80.1776 7.72551 78.4364C10.2288 72.5191 16.8321 70.6476 20.6359 70.0377" stroke="black" stroke-width="4.47" stroke-miterlimit="10"/>
<path d="M22.8586 93.7565C19.9687 93.9421 4.61283 88.1952 6.27811 74.3261C6.47678 72.4475 7.06487 70.6374 8.00117 69.0225C11.2522 63.5256 18.0578 62.6429 21.9013 62.5823" stroke="black" stroke-width="4.47" stroke-miterlimit="10"/>
<path d="M87.652 269.08C87.652 269.08 87.9807 266.447 89.7868 260.5" stroke="black" stroke-width="4.47" stroke-miterlimit="10"/>
<path d="M147.06 228.022V228.049C146.93 237.107 140.919 239.16 135.981 240.145C123.811 242.585 115.362 233.277 115.734 225.17" stroke="black" stroke-width="4.47" stroke-miterlimit="10"/>
<path d="M118.043 178.183C118.043 178.183 118.404 182.35 114.947 187.726C114.023 189.173 117.223 189.768 117.985 190.037" stroke="black" stroke-width="4.47" stroke-miterlimit="10"/>
<path d="M131.979 187.202C134.032 183.472 133.353 179.031 130.463 177.281C127.572 175.531 123.565 177.135 121.512 180.864C119.459 184.593 120.138 189.034 123.029 190.785C125.919 192.534 129.926 190.93 131.979 187.202Z" stroke="black" stroke-width="4.47" stroke-miterlimit="10"/>
<path d="M117.64 182.379C119.693 178.632 119.004 174.177 116.1 172.427C113.196 170.677 109.178 172.295 107.125 176.041C105.072 179.787 105.762 184.242 108.666 185.992C111.57 187.743 115.587 186.125 117.64 182.379Z" stroke="black" stroke-width="4.48539" stroke-miterlimit="10"/>
<path d="M112.638 173.285V174.421C113.242 174.416 113.835 174.579 114.358 174.895C114.844 175.208 115.256 175.632 115.563 176.136C115.87 176.64 116.065 177.211 116.131 177.804C116.328 179.286 116.033 180.793 115.297 182.074C114.213 184.025 112.407 185.282 110.619 185.282C110.016 185.29 109.423 185.128 108.9 184.813C108.414 184.499 108.003 184.075 107.696 183.571C107.388 183.067 107.194 182.497 107.126 181.903C106.93 180.421 107.225 178.912 107.96 177.63C109.044 175.683 110.85 174.421 112.638 174.421V173.285ZM112.638 173.285C110.55 173.285 108.336 174.679 107.028 177.073C105.222 180.354 105.818 184.271 108.361 185.786C109.048 186.201 109.827 186.417 110.619 186.411C112.707 186.411 114.921 185.014 116.233 182.623C118.039 179.346 117.439 175.425 114.896 173.91C114.209 173.498 113.43 173.284 112.638 173.289V173.285Z" fill="white"/>
<path d="M116.23 182.629C118.036 179.349 117.439 175.443 114.898 173.904C112.357 172.365 108.832 173.777 107.027 177.056C105.222 180.336 105.818 184.242 108.36 185.781C110.901 187.319 114.425 185.908 116.23 182.629Z" fill="#FFE9C5"/>
<path d="M132.139 186.123C133.944 182.828 133.338 178.91 130.785 177.371C128.232 175.832 124.698 177.255 122.893 180.55C121.088 183.845 121.694 187.763 124.247 189.302C126.8 190.841 130.333 189.417 132.139 186.123Z" fill="#FFE9C5"/>
<path d="M117.996 179.558C117.996 179.558 119.079 177.865 121.525 180.861" stroke="black" stroke-width="4.47" stroke-miterlimit="10"/>
<path d="M128.628 183.697C129.217 182.889 129.164 181.81 128.511 181.287C127.858 180.764 126.851 180.995 126.263 181.803C125.674 182.612 125.727 183.691 126.38 184.214C127.034 184.737 128.04 184.506 128.628 183.697Z" fill="#353642"/>
<path d="M116.443 180.018C117.031 179.21 116.979 178.131 116.325 177.607C115.672 177.085 114.665 177.316 114.077 178.124C113.488 178.932 113.541 180.011 114.195 180.534C114.848 181.057 115.854 180.826 116.443 180.018Z" fill="#353642"/>
<path d="M125.412 196.791C118.014 203.383 114.131 197.511 114.131 197.511" stroke="black" stroke-width="4.47" stroke-miterlimit="10"/>
<path d="M47.035 234.682C53.4324 233.481 59.8875 232.542 66.2271 231.314C69.3193 230.719 72.4089 230.14 75.4963 229.579C89.2519 227.125 102.986 225.215 116.893 225.155C117.565 225.155 118.214 224.9 118.72 224.438C119.227 223.976 119.557 223.337 119.649 222.639L119.906 220.62L121.528 208.031" stroke="black" stroke-width="4.47" stroke-miterlimit="10"/>
<path d="M144.451 209.039V208.978V208.675" stroke="black" stroke-width="4.47" stroke-miterlimit="10"/>
<path d="M3.76062 340.941H82.9965H91.9586H168.731H183.115H279" stroke="black" stroke-width="4.47" stroke-miterlimit="10"/>
<path d="M179.437 277.256C179.437 277.256 181.142 295.038 183.678 312.404C185.347 323.829 187.388 335.069 189.519 340.941" stroke="black" stroke-width="4.47" stroke-miterlimit="10"/>
<path d="M183.677 312.404L184.013 312.309L184.526 312.161C187.235 311.358 189.97 310.646 192.741 310.047C193.181 309.949 193.622 309.865 194.063 309.778C197.152 309.181 200.284 308.86 203.426 308.82C204.816 308.82 206.149 308.771 207.425 308.699H207.504C212.847 308.38 217.311 307.483 221.043 306.145C227.137 303.971 231.251 300.63 233.975 296.762C233.997 296.739 234.008 296.701 234.033 296.678C236.014 293.795 237.396 290.508 238.089 287.029C238.084 287.014 238.084 286.996 238.089 286.98L238.126 286.798" stroke="black" stroke-width="4.47" stroke-miterlimit="10"/>
</svg>
